<svg id="Layer_1" data-name="Layer 1" xmlns="http://www.w3.org/2000/svg" viewBox="0 0 14.43 15.11"><defs><style>.cls-1{fill:#fcfcfc;}</style></defs><path class="cls-1" d="M7.63.2,8.82,1.67a.51.51,0,0,0,.55.18l1.83-.49a.53.53,0,0,1,.67.49L12,3.74a.53.53,0,0,0,.34.47l1.77.68a.53.53,0,0,1,.26.79l-1,1.59a.51.51,0,0,0,0,.58l1,1.59a.53.53,0,0,1-.26.79l-1.77.67a.55.55,0,0,0-.34.47l-.1,1.9a.52.52,0,0,1-.67.48l-1.83-.49a.55.55,0,0,0-.55.18L7.63,14.92a.54.54,0,0,1-.83,0L5.61,13.44a.56.56,0,0,0-.56-.18l-1.83.49a.53.53,0,0,1-.67-.48l-.1-1.9a.53.53,0,0,0-.34-.47L.34,10.23a.54.54,0,0,1-.25-.79l1-1.59a.55.55,0,0,0,0-.58l-1-1.59a.53.53,0,0,1,.25-.79l1.77-.68a.52.52,0,0,0,.34-.47l.1-1.89a.54.54,0,0,1,.67-.49l1.83.49a.52.52,0,0,0,.56-.18L6.8.2A.53.53,0,0,1,7.63.2Z"/></svg>