<svg width="45" height="46" viewBox="0 0 45 46" fill="none" xmlns="http://www.w3.org/2000/svg">
<g filter="url(#filter0_bd_25_167)">
<path fill-rule="evenodd" clip-rule="evenodd" d="M21.8264 17.4855C22.1315 16.8382 22.8685 16.8382 23.1736 17.4855L27.8868 27.4855C28.201 28.152 27.8238 29 27.2132 29H17.7868C17.1762 29 16.799 28.152 17.1132 27.4855L21.8264 17.4855Z" fill="#FCFCFC" fill-opacity="0.8" shape-rendering="crispEdges"/>
<path d="M23.6259 17.2723C23.405 16.8037 22.9853 16.5 22.5 16.5C22.0147 16.5 21.595 16.8037 21.3741 17.2723L16.6609 27.2723C16.4372 27.747 16.4605 28.278 16.6463 28.6959C16.8298 29.1085 17.223 29.5 17.7868 29.5H27.2132C27.777 29.5 28.1702 29.1085 28.3537 28.6959C28.5395 28.278 28.5628 27.747 28.3391 27.2723L23.6259 17.2723Z" stroke="#FCFCFC" stroke-opacity="0.8" stroke-linejoin="round" shape-rendering="crispEdges"/>
</g>
<defs>
<filter id="filter0_bd_25_167" x="-34" y="-34" width="113" height="114" filterUnits="userSpaceOnUse" color-interpolation-filters="sRGB">
<feFlood flood-opacity="0" result="BackgroundImageFix"/>
<feGaussianBlur in="BackgroundImageFix" stdDeviation="25"/>
<feComposite in2="SourceAlpha" operator="in" result="effect1_backgroundBlur_25_167"/>
<feColorMatrix in="SourceAlpha" type="matrix" values="0 0 0 0 0 0 0 0 0 0 0 0 0 0 0 0 0 0 127 0" result="hardAlpha"/>
<feOffset/>
<feGaussianBlur stdDeviation="8"/>
<feComposite in2="hardAlpha" operator="out"/>
<feColorMatrix type="matrix" values="0 0 0 0 0.0664032 0 0 0 0 0.0135968 0 0 0 0 0.0135968 0 0 0 0.14 0"/>
<feBlend mode="normal" in2="effect1_backgroundBlur_25_167" result="effect2_dropShadow_25_167"/>
<feBlend mode="normal" in="SourceGraphic" in2="effect2_dropShadow_25_167" result="shape"/>
</filter>
</defs>
</svg>
