<?xml version="1.0" encoding="utf-8"?>
<!-- Generator: Adobe Illustrator 26.2.1, SVG Export Plug-In . SVG Version: 6.00 Build 0)  -->
<svg version="1.1" id="Layer_1" xmlns="http://www.w3.org/2000/svg" xmlns:xlink="http://www.w3.org/1999/xlink" x="0px" y="0px"
	 viewBox="0 0 47.7 38" style="enable-background:new 0 0 47.7 38;" xml:space="preserve">
<style type="text/css">
	.st0{display:none;fill:#201F1F;}
	.st1{fill:#FCFCFC;fill-opacity:0.8;}
	.st2{fill:#F23636;}
</style>
<g id="Layer_2_00000016756403492876353500000001755567117623770003_">
	<g id="Layer_1-2">
		<rect class="st0" width="47.7" height="38"/>
		<path class="st1" d="M14.1,11c0.6-1,1.8-1.3,2.7-0.7c0.3,0.2,0.6,0.4,0.7,0.7l13.9,24c0.6,1,0.2,2.2-0.7,2.7
			c-0.3,0.2-0.6,0.3-1,0.3H2c-1.1,0-2-0.9-2-2c0-0.4,0.1-0.7,0.3-1L14.1,11z"/>
		<path class="st2" d="M33.6,27c-0.6,1-1.8,1.3-2.7,0.7c-0.3-0.2-0.6-0.4-0.7-0.7L16.3,3C15.7,2,16,0.8,17,0.3C17.3,0.1,17.6,0,18,0
			h27.7c1.1,0,2,0.9,2,2c0,0.4-0.1,0.7-0.3,1L33.6,27z"/>
	</g>
</g>
</svg>
